<?xml version="1.0" encoding="UTF-8"?>
<svg id="Capa_2" data-name="Capa 2" xmlns="http://www.w3.org/2000/svg" xmlns:xlink="http://www.w3.org/1999/xlink" viewBox="0 0 556.18 221.35">
  <defs>
    <style>
      .cls-1 {
        fill: url(#Degradado_sin_nombre_2-8);
      }

      .cls-2 {
        fill: url(#Degradado_sin_nombre_2-4);
      }

      .cls-3 {
        fill: url(#Degradado_sin_nombre_2-5);
      }

      .cls-4 {
        fill: url(#Degradado_sin_nombre_2-11);
      }

      .cls-5 {
        fill: url(#Degradado_sin_nombre_2-13);
      }

      .cls-6 {
        letter-spacing: -.07em;
      }

      .cls-7 {
        fill: url(#Degradado_sin_nombre_2-20);
      }

      .cls-8 {
        fill: url(#Degradado_sin_nombre_2-19);
      }

      .cls-9 {
        fill: url(#Degradado_sin_nombre_2-6);
      }

      .cls-10 {
        fill: url(#Degradado_sin_nombre_2-3);
      }

      .cls-11 {
        fill: url(#Degradado_sin_nombre_2-12);
      }

      .cls-12 {
        font-size: 77.55px;
      }

      .cls-12, .cls-13 {
        fill: #fff;
        font-family: CormorantGaramond-Regular, 'Cormorant Garamond';
      }

      .cls-14 {
        fill: url(#Degradado_sin_nombre_2-16);
      }

      .cls-15 {
        fill: url(#Degradado_sin_nombre_2-17);
      }

      .cls-16 {
        fill: url(#Degradado_sin_nombre_2);
      }

      .cls-13 {
        font-size: 117.19px;
      }

      .cls-17 {
        letter-spacing: -.01em;
      }

      .cls-18 {
        letter-spacing: -.01em;
      }

      .cls-19 {
        fill: url(#Degradado_sin_nombre_2-7);
      }

      .cls-20 {
        fill: url(#Degradado_sin_nombre_2-18);
      }

      .cls-21 {
        fill: url(#Degradado_sin_nombre_2-9);
      }

      .cls-22 {
        fill: url(#Degradado_sin_nombre_2-10);
      }

      .cls-23 {
        fill: url(#Degradado_sin_nombre_2-2);
      }

      .cls-24 {
        fill: url(#Degradado_sin_nombre_2-15);
      }

      .cls-25 {
        fill: url(#Degradado_sin_nombre_2-14);
      }
    </style>
    <linearGradient id="Degradado_sin_nombre_2" data-name="Degradado sin nombre 2" x1="-38.64" y1="210.53" x2="48.17" y2="23.64" gradientUnits="userSpaceOnUse">
      <stop offset="0" stop-color="#fff"/>
      <stop offset="1" stop-color="#bfa758"/>
    </linearGradient>
    <linearGradient id="Degradado_sin_nombre_2-2" data-name="Degradado sin nombre 2" x1="2.45" y1="229.62" x2="89.26" y2="42.72" xlink:href="#Degradado_sin_nombre_2"/>
    <linearGradient id="Degradado_sin_nombre_2-3" data-name="Degradado sin nombre 2" x1="-6.92" y1="225.26" x2="79.89" y2="38.37" xlink:href="#Degradado_sin_nombre_2"/>
    <linearGradient id="Degradado_sin_nombre_2-4" data-name="Degradado sin nombre 2" x1="-20.64" y1="218.89" x2="66.17" y2="32" xlink:href="#Degradado_sin_nombre_2"/>
    <linearGradient id="Degradado_sin_nombre_2-5" data-name="Degradado sin nombre 2" x1="-35.62" y1="211.94" x2="51.19" y2="25.04" xlink:href="#Degradado_sin_nombre_2"/>
    <linearGradient id="Degradado_sin_nombre_2-6" data-name="Degradado sin nombre 2" x1="-46.4" y1="206.93" x2="40.41" y2="20.04" xlink:href="#Degradado_sin_nombre_2"/>
    <linearGradient id="Degradado_sin_nombre_2-7" data-name="Degradado sin nombre 2" x1="-36.78" y1="211.39" x2="50.03" y2="24.5" xlink:href="#Degradado_sin_nombre_2"/>
    <linearGradient id="Degradado_sin_nombre_2-8" data-name="Degradado sin nombre 2" x1="-31.24" y1="213.97" x2="55.57" y2="27.08" xlink:href="#Degradado_sin_nombre_2"/>
    <linearGradient id="Degradado_sin_nombre_2-9" data-name="Degradado sin nombre 2" x1="-20.31" y1="219.05" x2="66.5" y2="32.15" xlink:href="#Degradado_sin_nombre_2"/>
    <linearGradient id="Degradado_sin_nombre_2-10" data-name="Degradado sin nombre 2" x1="-8.61" y1="224.48" x2="78.2" y2="37.59" xlink:href="#Degradado_sin_nombre_2"/>
    <linearGradient id="Degradado_sin_nombre_2-11" data-name="Degradado sin nombre 2" x1="20.47" y1="237.99" x2="107.28" y2="51.09" xlink:href="#Degradado_sin_nombre_2"/>
    <linearGradient id="Degradado_sin_nombre_2-12" data-name="Degradado sin nombre 2" x1="29.45" y1="242.16" x2="116.25" y2="55.26" xlink:href="#Degradado_sin_nombre_2"/>
    <linearGradient id="Degradado_sin_nombre_2-13" data-name="Degradado sin nombre 2" x1="5.84" y1="231.19" x2="92.65" y2="44.3" xlink:href="#Degradado_sin_nombre_2"/>
    <linearGradient id="Degradado_sin_nombre_2-14" data-name="Degradado sin nombre 2" x1="1.36" y1="229.11" x2="88.17" y2="42.22" xlink:href="#Degradado_sin_nombre_2"/>
    <linearGradient id="Degradado_sin_nombre_2-15" data-name="Degradado sin nombre 2" x1="6.42" y1="231.46" x2="93.23" y2="44.57" xlink:href="#Degradado_sin_nombre_2"/>
    <linearGradient id="Degradado_sin_nombre_2-16" data-name="Degradado sin nombre 2" x1="16.33" y1="236.06" x2="103.13" y2="49.17" xlink:href="#Degradado_sin_nombre_2"/>
    <linearGradient id="Degradado_sin_nombre_2-17" data-name="Degradado sin nombre 2" x1="27.16" y1="241.09" x2="113.97" y2="54.2" xlink:href="#Degradado_sin_nombre_2"/>
    <linearGradient id="Degradado_sin_nombre_2-18" data-name="Degradado sin nombre 2" x1="53.4" y1="253.28" x2="140.21" y2="66.39" xlink:href="#Degradado_sin_nombre_2"/>
    <linearGradient id="Degradado_sin_nombre_2-19" data-name="Degradado sin nombre 2" x1="61.7" y1="257.14" x2="148.51" y2="70.24" xlink:href="#Degradado_sin_nombre_2"/>
    <linearGradient id="Degradado_sin_nombre_2-20" data-name="Degradado sin nombre 2" x1="39.97" y1="247.04" x2="126.77" y2="60.15" xlink:href="#Degradado_sin_nombre_2"/>
  </defs>
  <g id="Capa_1-2" data-name="Capa 1">
    <g>
      <g>
        <polygon class="cls-16" points="7.28 49.74 13.47 42.3 0 37.59 0 200.56 7.28 201.42 7.28 49.74"/>
        <polygon class="cls-23" points="27.25 172.07 15.5 174.48 15.5 202.4 27.02 203.77 27.25 172.07"/>
        <polygon class="cls-10" points="27.25 156.19 15.57 160.08 15.57 171.27 27.25 168.46 27.25 156.19"/>
        <polygon class="cls-2" points="27.25 95.9 15.57 104.13 15.57 155.39 27.25 152.58 27.25 95.9"/>
        <polygon class="cls-3" points="27.25 79.17 15.57 87.4 15.57 99.16 27.25 90.93 27.25 79.17"/>
        <polygon class="cls-9" points="27.25 33.76 15.57 48.98 15.57 81.15 27.25 72.92 27.25 33.76"/>
        <polygon class="cls-19" points="75.2 18.08 35.54 0 35.54 8.74 75.2 26 75.2 18.08"/>
        <polygon class="cls-1" points="75.2 31.77 35.54 13.69 35.54 25.56 75.2 41.33 75.2 31.77"/>
        <polygon class="cls-21" points="35.41 70.62 75.33 83.23 75.33 45.1 35.41 29.03 35.41 70.62"/>
        <polygon class="cls-22" points="35.41 88.11 75.33 98.49 75.33 88.11 35.41 75 35.41 88.11"/>
        <polygon class="cls-4" points="35.41 167.5 75.33 171.31 75.33 159.33 35.41 154.38 35.41 167.5"/>
        <polygon class="cls-11" points="35.41 203.26 75.33 201.93 75.33 174.88 35.41 170.77 35.41 203.26"/>
        <polygon class="cls-5" points="35.41 150.7 75.33 155.89 75.33 102.92 35.41 93.22 35.41 150.7"/>
        <polygon class="cls-25" points="104.37 31.9 82.67 21.73 82.67 29.53 104.37 39.69 104.37 31.9"/>
        <polygon class="cls-24" points="104.37 43.52 82.67 33.96 82.67 44.56 104.37 53.95 104.37 43.52"/>
        <polygon class="cls-14" points="82.6 84.8 104.44 92.08 104.44 57.45 82.6 47.66 82.6 84.8"/>
        <polygon class="cls-15" points="82.6 100.43 104.44 106.79 104.44 97.52 82.6 89.66 82.6 100.43"/>
        <polygon class="cls-20" points="82.6 171.33 104.44 173.24 104.44 163.42 82.6 160.56 82.6 171.33"/>
        <polygon class="cls-8" points="82.62 201.68 104.44 200.95 104.44 177.18 82.91 175.63 82.62 201.68"/>
        <polygon class="cls-7" points="82.6 156.33 104.44 159.14 104.44 110.85 82.6 104.34 82.6 156.33"/>
      </g>
      <text class="cls-13" transform="translate(124.5 126.29)"><tspan x="0" y="0">PRIMER</tspan></text>
      <text class="cls-12" transform="translate(129.19 199.4)"><tspan x="0" y="0">CON</tspan><tspan class="cls-6" x="168.98" y="0">T</tspan><tspan class="cls-18" x="212.72" y="0">A</tspan><tspan x="266.23" y="0">C</tspan><tspan class="cls-17" x="319.43" y="0">T</tspan><tspan x="367.59" y="0">O</tspan></text>
    </g>
  </g>
</svg>