<?xml version="1.0" encoding="UTF-8"?>
<svg id="Capa_2" data-name="Capa 2" xmlns="http://www.w3.org/2000/svg" viewBox="0 0 556.18 221.35">
  <defs>
    <style>
      .cls-1 {
        font-size: 117.19px;
      }

      .cls-1, .cls-2 {
        font-family: CormorantGaramond-Regular, 'Cormorant Garamond';
      }

      .cls-2 {
        font-size: 77.55px;
      }

      .cls-3 {
        letter-spacing: -.07em;
      }

      .cls-4 {
        letter-spacing: -.01em;
      }

      .cls-5 {
        letter-spacing: -.01em;
      }
    </style>
  </defs>
  <g id="Capa_1-2" data-name="Capa 1">
    <g>
      <g>
        <polygon points="7.28 49.74 13.47 42.3 0 37.59 0 200.56 7.28 201.42 7.28 49.74"/>
        <polygon points="27.25 172.07 15.5 174.48 15.5 202.4 27.02 203.77 27.25 172.07"/>
        <polygon points="27.25 156.19 15.57 160.08 15.57 171.27 27.25 168.46 27.25 156.19"/>
        <polygon points="27.25 95.9 15.57 104.13 15.57 155.39 27.25 152.58 27.25 95.9"/>
        <polygon points="27.25 79.17 15.57 87.4 15.57 99.16 27.25 90.93 27.25 79.17"/>
        <polygon points="27.25 33.76 15.57 48.98 15.57 81.15 27.25 72.92 27.25 33.76"/>
        <polygon points="75.2 18.08 35.54 0 35.54 8.74 75.2 26 75.2 18.08"/>
        <polygon points="75.2 31.77 35.54 13.69 35.54 25.56 75.2 41.33 75.2 31.77"/>
        <polygon points="35.41 70.62 75.33 83.23 75.33 45.1 35.41 29.03 35.41 70.62"/>
        <polygon points="35.41 88.11 75.33 98.49 75.33 88.11 35.41 75 35.41 88.11"/>
        <polygon points="35.41 167.5 75.33 171.31 75.33 159.33 35.41 154.38 35.41 167.5"/>
        <polygon points="35.41 203.26 75.33 201.93 75.33 174.88 35.41 170.77 35.41 203.26"/>
        <polygon points="35.41 150.7 75.33 155.89 75.33 102.92 35.41 93.22 35.41 150.7"/>
        <polygon points="104.37 31.9 82.67 21.73 82.67 29.53 104.37 39.69 104.37 31.9"/>
        <polygon points="104.37 43.52 82.67 33.96 82.67 44.56 104.37 53.95 104.37 43.52"/>
        <polygon points="82.6 84.8 104.44 92.08 104.44 57.45 82.6 47.66 82.6 84.8"/>
        <polygon points="82.6 100.43 104.44 106.79 104.44 97.52 82.6 89.66 82.6 100.43"/>
        <polygon points="82.6 171.33 104.44 173.24 104.44 163.42 82.6 160.56 82.6 171.33"/>
        <polygon points="82.62 201.68 104.44 200.95 104.44 177.18 82.91 175.63 82.62 201.68"/>
        <polygon points="82.6 156.33 104.44 159.14 104.44 110.85 82.6 104.34 82.6 156.33"/>
      </g>
      <text class="cls-1" transform="translate(124.5 126.29)"><tspan x="0" y="0">PRIMER</tspan></text>
      <text class="cls-2" transform="translate(129.19 199.4)"><tspan x="0" y="0">CON</tspan><tspan class="cls-3" x="168.98" y="0">T</tspan><tspan class="cls-5" x="212.72" y="0">A</tspan><tspan x="266.23" y="0">C</tspan><tspan class="cls-4" x="319.43" y="0">T</tspan><tspan x="367.59" y="0">O</tspan></text>
    </g>
  </g>
</svg>